<svg xmlns="http://www.w3.org/2000/svg" xmlns:xlink="http://www.w3.org/1999/xlink" fill="none" version="1.1" width="318" height="318" viewBox="0 0 318 318"><defs><clipPath id="master_svg0_1_5"><rect x="0" y="0" width="318" height="318" rx="0"/></clipPath><clipPath id="master_svg1_1_03"><rect x="80.715087890625" y="58.730377197265625" width="114.8692855834961" height="206.263916015625" rx="6"/></clipPath><linearGradient x1="0.7398329973220825" y1="0.024235760793089867" x2="0.01396846288194662" y2="0.8059593433918381" id="master_svg2_1_2217"><stop offset="0%" stop-color="#69AEF7" stop-opacity="1"/><stop offset="100.00001192092896%" stop-color="#69C1F7" stop-opacity="1"/></linearGradient><filter id="master_svg3_1_0" filterUnits="objectBoundingBox" color-interpolation-filters="sRGB" x="-0.12334799772185644" y="-0.08872387341116664" width="1.246695995443713" height="1.1774477468223332"><feFlood flood-opacity="0" result="BackgroundImageFix"/><feBlend mode="normal" in="SourceGraphic" in2="BackgroundImageFix" result="shape"/><feGaussianBlur stdDeviation="5" result="effect1_foregroundBlur"/></filter></defs><g clip-path="url(#master_svg0_1_5)"><g transform="matrix(0.9659258127212524,-0.258819043636322,0.258819043636322,0.9659258127212524,-12.450239037591018,22.891791726444353)" clip-path="url(#master_svg1_1_03)"><rect x="80.715087890625" y="58.730377197265625" width="114.8692855834961" height="206.263916015625" rx="6" fill="#F9F9F9" fill-opacity="1"/><g><path d="M77.6718755,59.07070922851575L225.592135,59.07070922851575C227.801265,59.07070922851575,229.592135,60.86157034609375,229.592135,63.07070974609375L229.592135,192.99424974609374C229.592135,195.20337974609376,227.801265,196.99424974609374,225.592135,196.99424974609374L204.385205,196.99424974609374C202.176075,196.99424974609374,200.38520499999998,195.20337974609376,200.38520499999998,192.99424974609374L200.38520499999998,149.97976674609373C200.38520499999998,148.32291374609375,199.04206499999998,146.97976674609373,197.38520499999998,146.97976674609373L178.384795,146.97976674609373C176.727945,146.97976674609373,175.384795,148.32291374609375,175.384795,149.97976674609373L175.384795,192.99424974609374C175.384795,195.20337974609376,173.593933,196.99424974609374,171.384796,196.99424974609374L106.070648,196.99424974609374C103.861509,196.99424974609374,102.070648,195.20337974609376,102.070648,192.99424974609374L102.070648,151.05960074609374C102.070648,149.40274774609375,100.727503,148.05960074609374,99.070648,148.05960074609374L80.0706482,148.05960074609374C78.4137936,148.05960074609374,77.0706482,149.40274774609375,77.0706482,151.05960074609374L77.0706482,195.29485974609375C77.0706482,196.23340974609374,76.3098068,196.99424974609374,75.3712616,196.99424974609374C74.43271625,196.99424974609374,73.671875,196.23340974609374,73.671875,195.29485974609375L73.671875,63.07071164609375C73.671875,60.86157034609375,75.4627361,59.07070922851575,77.6718755,59.07070922851575" fill-rule="evenodd" fill="url(#master_svg2_1_2217)" fill-opacity="1"/></g><g><rect x="136.4601821899414" y="36.987396240234375" width="4.134653091430664" height="170.56361389160156" rx="0" fill="#FFFFFF" fill-opacity="1"/></g><g><rect x="106.5819091796875" y="94.66079711914062" width="64.68474578857422" height="29.7791690826416" rx="3" fill="#69C1F7" fill-opacity="1"/><rect x="104.5819091796875" y="92.66079711914062" width="68.68474578857422" height="33.7791690826416" rx="5" fill-opacity="0" stroke-opacity="1" stroke="#FFFFFF" fill="none" stroke-width="4"/></g></g><g transform="matrix(0.9659258127212524,0.258819043636322,-0.258819043636322,0.9659258127212524,17.736070342687526,-26.71875654917676)" filter="url(#master_svg3_1_0)"><path d="M191.41403233203124,54.00003051757814L202.46166233203127,151.35034951757814L272.48547033203124,166.70927051757812L202.46166233203127,182.06819051757813L191.41403233203124,279.41850051757814L180.36640133203124,182.06819051757813L110.34259033203128,166.70927051757812L180.36640133203124,151.35034951757814L191.41403233203124,54.00003051757814Z" fill="#5892EA" fill-opacity="1"/></g><g transform="matrix(0.9659258127212524,0.258819043636322,-0.258819043636322,0.9659258127212524,17.736070342687526,-26.71875654917676)"><path d="M191.41403233203124,54.00003051757814L202.46166233203127,151.35034951757814L272.48547033203124,166.70927051757812L202.46166233203127,182.06819051757813L191.41403233203124,279.41850051757814L180.36640133203124,182.06819051757813L110.34259033203128,166.70927051757812L180.36640133203124,151.35034951757814L191.41403233203124,54.00003051757814Z" fill="#5892EA" fill-opacity="1"/></g></g></svg>